<?xml version="1.0" encoding="UTF-8" standalone="no"?>
<!DOCTYPE svg PUBLIC "-//W3C//DTD SVG 1.1//EN" "http://www.w3.org/Graphics/SVG/1.1/DTD/svg11.dtd">
<svg width="100%" height="100%" viewBox="0 0 1182 1182" version="1.1" xmlns="http://www.w3.org/2000/svg" xmlns:xlink="http://www.w3.org/1999/xlink" xml:space="preserve" xmlns:serif="http://www.serif.com/" style="fill-rule:evenodd;clip-rule:evenodd;stroke-linejoin:round;stroke-miterlimit:2;">
    <g transform="matrix(0.945724,0,0,0.945724,30.1615,42.5043)">
        <g transform="matrix(2.85282,0,0,2.85282,-1627.19,123.957)">
            <g transform="matrix(1,0,0,1,344.567,10.7494)">
                <path d="M566.382,90.625C574.392,77.087 589.143,68 606,68C631.388,68 652,88.612 652,114C652,139.388 631.388,160 606,160C597.531,160 589.594,157.706 582.775,153.707L596.227,112.308L566.382,90.625Z"/>
            </g>
            <g transform="matrix(1,0,0,1,279.974,215.435)">
                <path d="M608.685,68.077C632.825,69.469 652,89.513 652,114C652,139.388 631.388,160 606,160C580.612,160 560,139.388 560,114C560,109.506 560.646,105.161 561.85,101.054L597.97,101.054L608.685,68.077Z"/>
            </g>
            <g transform="matrix(1,0,0,1,62.142,215.435)">
                <path d="M650.15,101.054C651.354,105.161 652,109.506 652,114C652,139.388 631.388,160 606,160C580.612,160 560,139.388 560,114C560,90.048 578.346,70.347 601.74,68.195L612.417,101.054L650.15,101.054Z"/>
            </g>
            <g transform="matrix(1,0,0,1,170.253,-119.974)">
                <path d="M573.824,146.861C565.295,138.509 560,126.868 560,114C560,88.612 580.612,68 606,68C631.388,68 652,88.612 652,114C652,126.869 646.704,138.51 638.175,146.862L605.999,123.484L573.824,146.861Z"/>
            </g>
            <path d="M622.696,156.871C617.519,158.891 611.888,160 606,160C580.612,160 560,139.388 560,114C560,88.612 580.612,68 606,68C625.133,68 641.553,79.706 648.483,96.34L611.71,123.058L622.696,156.871Z"/>
        </g>
        <g transform="matrix(0.83577,0,0,0.83577,93.7452,133.973)">
            <path d="M590.551,0L1152.2,408.061L937.668,1068.32L243.434,1068.32L28.904,408.061L590.551,0ZM590.551,58.225L84.279,426.053L277.658,1021.22L903.444,1021.22L1096.83,426.053L590.551,58.225Z"/>
        </g>
    </g>
</svg>
